# xmcd
#
# Track frame offsets: 
#        182
#        17872
#        39317
#        62740
#        78107
#        90570
#        109207
#        132892
#        147102
#        175030
#        195000
#        215807
#        232265
#
# Disc length: 3465 seconds
#
# Revision: 1
# Processed by: cddbd v1.4PL0 Copyright (c) Steve Scherf et al.
# Submitted via: ExactAudioCopy v0.90b4
#
DISCID=a90d870d
DTITLE=The Church - Gold Afternoon Fix
DYEAR=1990
DGENRE=Rock
TTITLE0=Pharaoh
TTITLE1=Metropolis
TTITLE2=Terra Nova Cain
TTITLE3=City
TTITLE4=Monday Morning
TTITLE5=Russian Autumn Heart
TTITLE6=Essence
TTITLE7=You're Still Beautiful
TTITLE8=Disappointment
TTITLE9=Transient
TTITLE10=Laughing
TTITLE11=Fading Away
TTITLE12=Grind
EXTD=
EXTT0=
EXTT1=
EXTT2=
EXTT3=
EXTT4=
EXTT5=
EXTT6=
EXTT7=
EXTT8=
EXTT9=
EXTT10=
EXTT11=
EXTT12=
PLAYORDER=
